<?xml version="1.0" standalone="no"?>
<!DOCTYPE svg PUBLIC "-//W3C//DTD SVG 20010904//EN"
 "http://www.w3.org/TR/2001/REC-SVG-20010904/DTD/svg10.dtd">
<svg version="1.0" xmlns="http://www.w3.org/2000/svg"
 width="1024.000000pt" height="1024.000000pt" viewBox="0 0 1024.000000 1024.000000"
 preserveAspectRatio="xMidYMid meet">

<g transform="translate(0.000000,1024.000000) scale(0.100000,-0.100000)"
fill="#000000" stroke="none">
<path d="M7055 9155 c-181 -28 -296 -65 -470 -152 -216 -108 -456 -328 -598
-548 -54 -84 -169 -316 -185 -371 -5 -22 -26 -93 -46 -159 -57 -194 -77 -326
-83 -541 l-6 -191 24 -6 c34 -9 199 -9 200 1 0 4 4 43 9 87 18 163 31 252 46
330 9 44 20 102 25 130 18 102 83 285 150 421 117 238 272 410 509 565 252
165 604 205 909 103 286 -96 572 -374 729 -709 74 -159 127 -328 152 -485 11
-74 28 -162 37 -195 8 -33 18 -99 20 -147 6 -110 9 -114 122 -111 117 2 114
-4 108 208 -4 141 -10 195 -36 315 -43 200 -74 306 -131 440 -155 369 -348
612 -642 806 -175 116 -321 175 -505 204 -138 22 -221 24 -338 5z"/>
<path d="M1168 7867 c-12 -4 -26 -13 -30 -20 -10 -15 -9 -260 1 -440 9 -155
18 -178 86 -210 31 -15 252 -77 274 -77 3 0 6 62 6 138 0 126 2 141 25 186 14
28 42 64 63 80 39 31 39 31 183 34 167 4 234 -7 298 -49 51 -34 88 -99 107
-186 12 -57 1 -135 -26 -187 -9 -16 -13 -32 -9 -35 11 -11 777 -4 899 8 210
22 329 57 360 105 21 32 25 314 5 326 -63 40 -304 108 -399 112 -28 2 -51 6
-51 10 0 4 -16 4 -36 1 -21 -4 -39 -2 -43 5 -3 6 -47 14 -96 17 -50 4 -93 9
-97 11 -4 2 -9 0 -13 -6 -3 -5 -13 -10 -21 -10 -8 0 -13 4 -9 9 3 5 2 12 -3
15 -11 6 -42 -30 -42 -49 0 -8 -9 -15 -20 -15 -13 0 -20 -7 -20 -20 0 -17 -7
-20 -39 -20 -39 0 -40 1 -43 38 -3 37 -4 37 -53 43 -27 3 -44 7 -37 7 6 1 12
9 12 17 0 13 26 21 53 16 5 -1 6 3 3 8 -4 6 -18 6 -36 1 -17 -5 -32 -5 -35 0
-3 5 -21 9 -39 8 -18 -1 -38 2 -43 5 -6 4 -60 11 -121 16 -61 6 -146 17 -189
25 -101 20 -331 46 -408 46 -33 0 -100 7 -150 16 -124 22 -240 31 -267 21z
m1702 -358 c-80 -13 -85 -19 -10 -12 36 4 73 7 83 7 9 0 17 4 17 8 0 4 9 8 20
8 13 0 20 -7 20 -20 0 -11 5 -20 10 -20 6 0 10 -4 10 -9 0 -12 -217 -22 -265
-12 -22 5 -33 9 -25 10 11 1 11 4 2 13 -31 31 -14 38 91 37 96 -1 99 -2 47
-10z m-175 -39 c18 -8 17 -9 -7 -9 -16 -1 -28 4 -28 9 0 12 8 12 35 0z m-275
-185 c17 -20 8 -49 -16 -53 -27 -4 -47 21 -39 48 7 23 37 27 55 5z"/>
<path d="M2928 7494 c-4 -3 -37 -9 -75 -13 l-68 -8 83 -2 c67 -1 82 2 82 14 0
15 -12 20 -22 9z"/>
<path d="M2968 7473 c7 -3 16 -2 19 1 4 3 -2 6 -13 5 -11 0 -14 -3 -6 -6z"/>
<path d="M2508 7723 c7 -3 16 -2 19 1 4 3 -2 6 -13 5 -11 0 -14 -3 -6 -6z"/>
<path d="M1650 7457 c-43 -21 -61 -73 -63 -189 -3 -176 22 -197 232 -205 129
-4 138 -3 176 19 63 37 98 96 103 173 2 35 1 76 -2 90 -9 35 -65 95 -103 111
-43 18 -307 19 -343 1z m345 -167 c17 -19 17 -21 0 -40 -10 -11 -26 -20 -37
-20 -21 0 -44 41 -35 64 9 22 50 20 72 -4z"/>
<path d="M7470 6933 c21 -10 9 -23 -21 -23 -16 0 -28 3 -26 8 3 4 -117 7 -266
7 -234 1 -274 -1 -284 -15 -11 -13 -12 -13 -13 3 0 14 -9 17 -48 17 -48 0 -49
0 -44 -30 l4 -30 -451 0 -451 0 0 26 c0 21 -3 25 -17 19 -44 -18 -102 -26
-150 -20 -34 4 -53 3 -53 -4 0 -18 -57 -21 -502 -23 -240 -2 -440 -6 -444 -10
-14 -15 -23 -285 -26 -803 -3 -599 -4 -596 68 -721 l46 -79 -11 -65 c-6 -36
-18 -121 -27 -190 -8 -69 -21 -154 -29 -190 -7 -36 -16 -119 -19 -185 -11
-201 -17 -277 -27 -341 -5 -33 -13 -127 -19 -210 -11 -150 -44 -425 -60 -499
-8 -37 -32 -221 -32 -255 -1 -8 -4 -20 -9 -26 -5 -6 -11 -60 -14 -120 -6 -95
-3 -121 18 -205 13 -52 30 -105 36 -117 14 -27 15 -27 -61 2 -206 77 -433 230
-615 414 -45 46 -83 86 -85 90 -2 4 -7 6 -11 4 -5 -1 -6 1 -3 6 3 5 -7 21 -22
35 -15 14 -37 37 -49 52 -13 15 -23 22 -23 16 0 -6 -7 -8 -15 -5 -8 4 -15 10
-15 16 0 5 4 6 10 3 6 -3 10 -4 10 -2 0 7 -23 48 -44 80 -21 31 -34 30 -17 -1
8 -16 7 -24 -4 -36 -22 -21 -18 -44 8 -48 15 -2 21 -9 19 -20 -2 -11 3 -18 13
-18 14 0 16 -7 10 -39 -6 -35 -4 -39 19 -45 19 -5 27 -15 32 -41 5 -30 10 -34
43 -37 29 -2 37 -7 39 -26 2 -14 -5 -30 -17 -41 -27 -23 -27 -51 -1 -51 18 0
20 -7 20 -60 0 -52 2 -60 19 -60 15 0 21 -10 26 -40 4 -25 12 -40 21 -40 10 0
14 -12 14 -40 0 -32 4 -40 18 -40 25 0 72 -97 65 -133 -3 -16 -1 -27 6 -27 6
0 11 -9 11 -20 0 -11 5 -20 10 -20 6 0 10 -8 10 -18 0 -11 9 -27 20 -37 30
-27 14 -36 -35 -17 -24 9 -42 19 -39 24 3 4 -7 8 -21 8 -55 0 -246 129 -381
257 -204 194 -419 507 -616 898 -20 39 -43 84 -51 100 -9 17 -57 116 -108 220
-50 105 -138 283 -195 398 -57 114 -102 207 -98 207 3 0 -2 7 -10 16 -17 17
-22 39 -6 29 20 -12 80 32 80 59 0 11 9 16 30 16 25 0 30 -4 30 -24 0 -19 -4
-23 -20 -19 -15 4 -20 0 -20 -16 0 -18 6 -21 40 -21 33 0 40 -3 40 -20 0 -18
7 -20 66 -20 52 0 70 -4 83 -18 9 -10 24 -21 34 -25 24 -9 22 -37 -3 -37 -11
0 -20 -4 -20 -10 0 -5 22 -10 49 -10 27 0 61 -4 76 -10 20 -8 24 -7 19 3 -38
61 -79 121 -185 268 -269 373 -499 654 -747 912 -191 200 -375 397 -461 495
-56 64 -78 82 -93 79 -13 -4 -18 -1 -15 8 4 9 -1 11 -14 8 -10 -3 -19 -12 -19
-19 0 -8 -4 -14 -8 -14 -10 0 -175 148 -212 190 -45 51 -120 100 -152 100 -35
0 -78 -40 -133 -124 -18 -28 -44 -67 -57 -86 -14 -19 -36 -53 -50 -75 -14 -22
-48 -76 -76 -121 -125 -199 -271 -534 -311 -716 -19 -84 -32 -263 -25 -342 l7
-81 76 -79 c42 -43 119 -113 171 -155 98 -78 139 -106 444 -306 158 -103 366
-257 366 -272 0 -3 -17 5 -38 18 -20 12 -86 49 -147 82 -60 33 -123 68 -138
79 -15 11 -111 70 -212 132 -205 124 -384 260 -447 341 -23 30 -43 53 -45 52
-4 -5 36 -155 52 -193 9 -22 50 -129 90 -240 173 -474 237 -771 270 -1254 30
-440 37 -643 42 -1390 4 -701 6 -766 21 -772 10 -4 60 -7 114 -7 l96 -1 4 98
c2 53 1 102 -3 107 -13 18 -7 1715 7 2055 16 403 35 509 108 609 62 84 173
124 272 100 112 -27 207 -94 365 -256 411 -420 653 -868 1124 -2078 34 -89 93
-223 130 -299 59 -122 76 -148 139 -210 88 -88 158 -130 261 -156 267 -69 859
-43 1492 65 12 2 57 9 100 15 43 6 94 15 113 20 19 5 51 11 70 14 81 12 346
77 489 119 180 54 243 83 252 118 4 13 27 88 52 167 25 78 42 142 38 142 -4 0
-48 -8 -97 -19 -49 -10 -136 -24 -194 -30 -58 -7 -168 -21 -245 -31 -77 -11
-176 -22 -220 -25 -44 -3 -89 -8 -100 -10 -49 -10 -501 -37 -720 -43 -132 -4
-375 -4 -540 0 -475 10 -632 46 -827 189 -74 56 -126 109 -168 176 -35 54 -93
190 -88 205 2 5 37 -33 78 -86 208 -273 380 -368 717 -398 259 -23 931 -15
1345 16 371 28 918 94 1033 124 l70 18 7 50 c11 67 -7 177 -39 244 -17 34 -54
82 -101 128 -90 89 -202 146 -432 223 -197 65 -405 146 -499 193 -44 23 -93
39 -124 42 -29 3 -105 24 -169 46 -116 40 -118 41 -128 77 -48 182 -47 382 6
831 3 25 16 122 29 215 13 94 26 204 30 245 11 126 54 445 85 630 16 96 32
207 35 245 3 39 8 81 11 94 l5 24 27 -25 c44 -42 102 -72 197 -106 165 -58
294 -78 705 -107 124 -8 278 -20 343 -25 65 -6 215 -13 332 -17 l214 -6 7 -26
c3 -14 8 -505 9 -1091 2 -586 4 -1071 4 -1078 1 -9 13 -12 39 -10 l37 3 1 170
c1 96 -2 142 -5 105 -13 -137 -21 278 -19 929 2 587 3 617 8 281 6 -399 10
-297 13 325 1 209 3 360 5 335 9 -162 50 -350 96 -438 19 -36 34 -174 38 -332
2 -87 3 -77 8 65 5 159 6 168 20 140 12 -25 15 -113 15 -565 0 -294 -4 -642
-9 -772 l-9 -238 22 0 22 0 -6 738 c-3 405 -8 756 -10 780 -4 40 6 55 21 30 4
-6 10 -72 14 -147 l7 -136 1 134 2 134 25 -23 c20 -18 25 -34 27 -74 l2 -51 3
48 c6 68 23 58 23 -13 0 -33 4 -60 10 -60 6 0 10 25 10 56 0 34 4 53 10 49 6
-3 10 -29 10 -56 0 -63 15 -56 24 11 8 58 26 67 26 13 0 -21 5 -45 10 -53 7
-11 10 3 10 47 0 54 3 64 23 74 19 10 20 10 10 -2 -8 -10 -9 -38 -3 -94 l7
-80 2 74 c1 78 16 137 37 145 8 3 9 -6 4 -32 -12 -57 -12 -160 0 -142 5 8 10
49 11 90 1 81 9 122 24 127 6 2 9 -33 9 -89 l-2 -93 13 105 c7 58 14 111 14
118 1 6 5 12 9 12 5 0 8 -71 6 -157 l-2 -158 7 130 c8 136 19 220 28 211 3 -2
4 -69 4 -147 -1 -79 0 -141 3 -138 3 3 7 85 10 183 5 138 11 196 27 259 12 45
26 86 30 90 4 5 5 -40 4 -100 l-4 -108 9 95 c5 52 14 136 19 185 l10 90 -6
-105 c-7 -133 -19 -1185 -19 -1635 l1 -340 38 0 37 0 2 950 c1 523 4 1018 6
1101 l3 151 182 6 c100 3 241 11 312 17 117 10 518 37 521 36 1 -1 3 -122 5
-270 l4 -270 -28 -7 c-15 -4 -59 -33 -97 -64 -92 -75 -130 -147 -130 -246 0
-57 5 -77 35 -136 20 -38 54 -89 75 -115 39 -45 41 -46 79 -37 22 5 57 9 78 8
128 -2 291 103 309 199 9 47 -1 134 -23 196 -21 59 -126 173 -171 185 l-27 7
-3 120 c-1 65 1 191 5 279 l8 160 35 2 c246 18 584 123 642 199 l27 36 10 -39
c5 -21 12 -72 16 -113 4 -41 8 -86 11 -100 18 -119 44 -308 49 -365 3 -38 13
-124 20 -190 8 -66 24 -205 35 -310 23 -219 49 -439 56 -475 10 -55 15 -134
21 -345 5 -186 3 -233 -12 -304 -19 -95 -76 -240 -102 -258 -14 -11 -8 -13 40
-13 51 0 59 3 92 36 20 20 47 59 60 87 24 53 68 245 80 352 4 33 12 69 18 80
6 11 12 27 13 35 2 8 7 34 12 56 8 37 7 41 -10 36 -50 -13 -80 47 -93 188 -3
36 -12 115 -20 175 -24 179 -44 371 -56 520 -14 175 -14 196 -6 218 3 9 3 17
-1 17 -14 0 -3 89 15 116 10 16 14 25 8 22 -6 -4 -10 17 -11 55 0 34 -17 143
-37 242 -19 99 -38 209 -42 245 -3 36 -11 91 -17 122 -9 51 -8 64 10 106 36
84 62 199 72 325 17 194 4 1167 -15 1186 -4 3 -220 8 -482 11 -413 4 -476 7
-486 21 -17 22 -216 21 -234 -1 -10 -13 -74 -15 -447 -18 l-436 -3 0 29 c0 31
-17 42 -67 42 -19 0 -23 -6 -23 -30 0 -37 -18 -40 -22 -3 -2 14 -9 28 -16 29
-7 1 -8 0 -2 -3z m-572 -146 c2 -36 0 -47 -11 -47 -18 0 -27 21 -27 59 0 62
34 51 38 -12z m610 -19 c-2 -39 -7 -53 -18 -53 -11 0 -16 14 -18 53 -3 47 -1
52 18 52 19 0 21 -5 18 -52z m2036 -14 c12 -32 7 -104 -8 -104 -18 0 -30 50
-21 90 7 33 19 39 29 14z m-4690 -10 c10 -26 7 -82 -5 -90 -16 -10 -29 15 -29
57 0 48 21 68 34 33z m2048 -119 c7 -53 4 -65 -17 -65 -19 0 -29 41 -21 86 10
49 29 38 38 -21z m608 -41 c0 -47 -3 -55 -17 -52 -13 2 -19 15 -21 42 -4 47 3
66 23 66 12 0 15 -12 15 -56z m-2657 -46 c6 -47 3 -58 -19 -58 -10 0 -14 13
-14 50 0 64 25 70 33 8z m4697 -18 c0 -38 -4 -50 -15 -50 -11 0 -15 11 -15 43
0 24 3 47 7 50 16 17 23 3 23 -43z m-8470 -2 l23 -33 -31 29 c-34 31 -37 36
-24 36 5 0 19 -15 32 -32z m5820 -63 c0 -41 -4 -55 -14 -55 -10 0 -17 16 -21
44 -8 48 -2 66 21 66 10 0 14 -14 14 -55z m608 -45 c-4 -60 -22 -71 -26 -16
-4 43 2 66 18 66 7 0 10 -19 8 -50z m-6268 -41 c12 -16 19 -33 15 -37 -7 -7
-55 46 -55 61 0 17 20 5 40 -24z m8320 17 c0 -37 -14 -106 -21 -106 -5 0 -9
27 -9 60 0 47 3 60 15 60 8 0 15 -6 15 -14z m-4708 -48 c5 -60 0 -80 -16 -75
-12 4 -21 90 -12 113 11 30 24 12 28 -38z m2053 -52 c8 -48 2 -66 -21 -66 -10
0 -14 13 -14 48 0 27 3 52 7 55 14 15 22 5 28 -37z m605 -26 c0 -22 -4 -40 -9
-40 -14 0 -23 37 -16 60 11 34 25 22 25 -20z m-6136 -22 c23 -33 9 -36 -22 -5
-21 21 -23 27 -10 27 9 0 24 -10 32 -22z m3476 -118 c0 -33 -4 -60 -9 -60 -14
0 -21 27 -21 76 0 32 4 44 15 44 12 0 15 -13 15 -60z m2660 -1 c0 -36 -4 -49
-12 -47 -17 6 -21 38 -9 71 15 40 21 33 21 -24z m2050 -10 c0 -37 -4 -49 -15
-49 -11 0 -15 12 -15 48 0 27 3 52 6 55 15 14 24 -7 24 -54z m-2660 1 c0 -38
-4 -50 -15 -50 -11 0 -15 11 -15 43 0 24 3 47 7 50 16 17 23 3 23 -43z m610
-155 c0 -33 -4 -45 -15 -45 -19 0 -21 60 -3 78 17 17 18 16 18 -33z m-2660
-25 c0 -33 -4 -60 -9 -60 -14 0 -21 27 -21 76 0 32 4 44 15 44 12 0 15 -13 15
-60z m2060 -16 c0 -57 -2 -65 -17 -62 -14 3 -19 15 -21 62 -2 40 1 62 9 67 23
14 29 -1 29 -67z m2648 14 c-4 -59 -28 -63 -28 -4 0 35 4 46 16 46 12 0 14 -9
12 -42z m-7930 -9 c7 -12 11 -23 9 -25 -6 -6 -37 25 -37 37 0 16 15 10 28 -12z
m88 -106 c34 -46 36 -53 21 -53 -12 0 -57 60 -57 76 0 13 19 1 36 -23z m5799
6 c12 -19 -5 -99 -21 -99 -10 0 -14 14 -14 55 0 41 4 55 14 55 8 0 18 -5 21
-11z m-2659 -92 c6 -49 5 -57 -9 -51 -11 4 -16 22 -19 61 -1 30 -1 57 1 59 11
10 21 -15 27 -69z m4694 39 c0 -42 -16 -86 -31 -86 -7 0 -9 16 -4 53 8 57 12
67 26 67 5 0 9 -15 9 -34z m-2642 -45 c3 -51 -5 -70 -30 -71 -5 0 -8 30 -8 66
0 57 2 65 18 62 13 -2 18 -15 20 -57z m434 -16 c33 -14 77 -37 96 -52 23 -17
37 -23 40 -15 5 17 22 4 22 -17 0 -10 19 -47 41 -82 58 -89 73 -137 66 -216
-4 -56 -9 -69 -33 -90 -25 -21 -30 -22 -40 -9 -9 13 -32 14 -145 9 l-134 -6
-13 27 c-10 22 -18 26 -52 26 -33 0 -40 -3 -40 -19 0 -29 -28 -34 -169 -30
l-126 4 -5 -55 -5 -55 -8 40 c-5 22 -20 57 -34 77 -23 34 -25 45 -21 112 4 56
12 89 34 132 56 111 172 209 282 241 64 18 169 9 244 -22z m-5491 -97 c11 -16
17 -28 12 -28 -8 1 -65 76 -71 95 -4 11 26 -23 59 -67z m7676 -34 c-6 -35 -31
-74 -49 -74 -12 0 -10 14 12 64 24 56 45 62 37 10z m-4647 -34 c0 -22 -2 -40
-5 -40 -6 0 -19 33 -29 73 -6 26 -5 27 14 17 15 -8 20 -21 20 -50z m28 -72 c7
-7 12 -21 12 -31 0 -16 -3 -17 -14 -8 -15 13 -28 51 -17 51 4 0 12 -5 19 -12z
m-2943 -29 c16 -31 15 -46 -3 -35 -14 9 -33 66 -22 66 5 0 17 -14 25 -31z
m7445 -69 c-16 -38 -59 -68 -71 -49 -8 14 -2 24 51 82 20 23 26 25 28 12 2 -9
-2 -30 -8 -45z m-4405 -31 c19 -24 23 -35 15 -43 -8 -8 -18 -4 -36 17 -24 28
-32 57 -15 57 5 0 21 -14 36 -31z m-2949 -52 c17 -32 17 -32 -4 -14 -11 10
-22 27 -25 38 -7 27 10 13 29 -24z m7221 -23 c5 -15 -63 -58 -77 -49 -17 10
-11 33 13 50 24 17 58 17 64 -1z m-4099 -52 c5 -16 -8 -15 -52 3 -20 8 -36 22
-36 30 0 12 7 11 42 -4 23 -9 44 -23 46 -29z m3940 -47 c-2 -2 -23 -7 -46 -11
-56 -9 -56 11 1 35 41 18 42 18 45 -1 2 -11 2 -21 0 -23z m-3798 -7 c0 -13
-57 -3 -77 13 -26 22 -12 28 32 12 25 -8 45 -20 45 -25z m-3160 -35 c0 -13 -3
-13 -15 -3 -8 7 -15 19 -15 27 0 13 3 13 15 3 8 -7 15 -19 15 -27z m3318 2
c-3 -9 -65 -8 -80 2 -5 2 -8 10 -8 18 0 10 8 11 46 1 25 -6 44 -16 42 -21z
m3492 26 c0 -24 -91 -53 -104 -33 -8 13 7 23 48 33 44 10 56 10 56 0z m-3329
-31 c20 0 29 -5 29 -16 0 -13 -8 -14 -47 -8 -27 3 -55 13 -63 21 -13 14 -11
15 19 9 18 -3 46 -6 62 -6z m3146 -15 c-5 -10 -20 -15 -52 -15 -73 0 -56 22
25 33 31 4 34 2 27 -18z m-167 -10 c0 -11 -12 -15 -50 -15 -78 0 -62 26 18 29
22 1 32 -4 32 -14z m-2782 -12 c2 -9 -6 -13 -25 -13 -39 0 -73 10 -73 22 0 14
93 5 98 -9z m2612 2 c0 -8 -6 -15 -12 -15 -7 0 -30 -3 -50 -6 -30 -5 -38 -3
-38 9 0 16 21 23 73 26 18 1 27 -4 27 -14z m-2449 -11 c11 -13 7 -15 -36 -12
-27 2 -50 8 -53 16 -6 18 72 16 89 -4z m2289 -4 c0 -14 -40 -22 -86 -18 -38 4
-38 4 -14 15 31 14 100 16 100 3z m-2120 -10 c0 -5 -22 -10 -50 -10 -27 0 -50
5 -50 10 0 6 23 10 50 10 28 0 50 -4 50 -10z m1945 -11 c-8 -12 -105 -12 -105
0 0 6 21 11 48 13 53 3 65 1 57 -13z m-1790 0 c4 -6 5 -12 4 -14 -8 -7 -99 8
-99 16 0 13 88 11 95 -2z m1615 -4 c0 -11 -12 -15 -45 -15 -52 0 -61 17 -12
23 17 2 38 5 45 5 6 1 12 -5 12 -13z m-1443 -9 c13 -13 -8 -18 -52 -12 -60 9
-60 30 0 23 26 -2 49 -7 52 -11z m163 -1 c0 -11 -12 -15 -50 -15 -46 0 -60 7
-43 23 3 4 26 7 50 7 32 0 43 -4 43 -15z m953 -5 c-4 -16 -14 -20 -44 -20 -32
0 -39 3 -39 20 0 17 7 20 44 20 39 0 44 -2 39 -20z m155 3 c-4 -22 -39 -28
-68 -13 -30 16 -15 30 31 30 33 0 40 -3 37 -17z m-5548 -21 c0 -15 -2 -15 -10
-2 -13 20 -13 33 0 25 6 -3 10 -14 10 -23z m4580 12 c0 -11 -8 -14 -27 -12
-39 4 -42 28 -4 28 21 0 31 -5 31 -16z m-4512 -109 c7 -14 12 -34 12 -43 -1
-25 -40 24 -40 49 0 27 15 24 28 -6z m197 -115 c10 -11 13 -20 7 -20 -6 0 -16
9 -22 20 -6 11 -9 20 -7 20 2 0 12 -9 22 -20z m-120 -30 c17 -33 19 -50 6 -50
-8 0 -31 52 -31 71 0 17 10 9 25 -21z m536 -92 c1 -7 1 -17 0 -21 -1 -4 8 -3
19 3 16 8 20 8 20 -3 0 -9 -10 -14 -24 -14 -17 0 -25 6 -29 23 -2 13 0 24 4
24 5 0 10 -6 10 -12z m-466 -48 c17 -32 20 -60 6 -60 -9 0 -31 53 -31 76 0 22
8 16 25 -16z m81 -155 c8 -13 14 -32 12 -42 -3 -14 -9 -11 -26 17 -12 19 -22
38 -22 43 0 16 20 6 36 -18z m82 -149 c6 -13 8 -27 5 -30 -9 -8 -43 24 -43 41
0 22 26 15 38 -11z m6197 -84 c121 -67 132 -252 20 -351 -77 -67 -147 -78
-213 -33 -55 37 -99 94 -118 157 -16 48 -16 55 0 103 44 132 190 190 311 124z
m-6125 -62 c8 -16 8 -20 -4 -20 -9 0 -20 9 -26 20 -8 16 -8 20 4 20 9 0 20 -9
26 -20z m69 -155 c16 -27 17 -35 6 -35 -16 0 -35 30 -35 54 0 24 6 20 29 -19z
m74 -154 c10 -17 13 -31 8 -31 -6 0 -20 19 -32 42 -24 47 -5 38 24 -11z m76
-155 c23 -37 26 -46 11 -46 -10 0 -40 52 -40 70 0 17 8 11 29 -24z m86 -146
c9 -16 11 -30 6 -30 -10 0 -26 19 -34 43 -11 29 11 19 28 -13z m166 -297 c13
-16 12 -17 -3 -4 -17 13 -22 21 -14 21 2 0 10 -8 17 -17z m258 -334 c13 -17
20 -33 17 -37 -6 -6 -27 17 -47 51 -17 29 6 19 30 -14z m129 -165 c-4 -3 -12
5 -18 18 -12 22 -12 22 6 6 10 -10 15 -20 12 -24z m97 -74 c3 -6 -1 -7 -9 -4
-18 7 -21 14 -7 14 6 0 13 -4 16 -10z m155 -105 c24 -13 24 -14 4 -15 -12 0
-27 7 -34 15 -16 19 -3 19 30 0z m1264 -17 c-16 -18 -30 -35 -32 -37 -1 -3 -7
0 -13 6 -7 7 2 18 28 36 50 34 52 33 17 -5z m-1121 -55 c23 -12 27 -18 16 -21
-9 -1 -32 6 -50 17 -42 26 -13 29 34 4z m978 -38 c0 -6 -10 -12 -23 -13 -19
-4 -20 -2 -9 12 15 17 33 18 32 1z m-826 -16 c4 -5 18 -15 32 -20 37 -14 23
-20 -19 -9 -44 13 -72 40 -40 40 12 0 24 -5 27 -11z m174 -45 c34 -7 43 -34
10 -34 -25 0 -59 17 -59 30 0 12 7 12 49 4z m481 -2 c0 -16 -24 -32 -48 -32
-30 0 -24 22 9 31 34 10 39 10 39 1z m-302 -30 c3 -10 -6 -12 -34 -10 -20 2
-39 9 -42 16 -3 10 6 12 34 10 20 -2 39 -9 42 -16z m152 4 c0 -8 -13 -16 -30
-18 -34 -5 -51 9 -29 23 22 14 59 11 59 -5z"/>
<path d="M7146 5412 c-3 -5 1 -9 9 -9 8 0 15 4 15 9 0 4 -4 8 -9 8 -6 0 -12
-4 -15 -8z"/>
<path d="M7185 5410 c3 -5 16 -10 28 -10 18 0 19 2 7 10 -20 13 -43 13 -35 0z"/>
<path d="M9394 4935 c-7 -42 0 -54 24 -39 25 16 27 51 3 63 -18 10 -21 8 -27
-24z"/>
<path d="M4959 4928 c-10 -18 -8 -24 11 -40 25 -20 40 -16 40 12 0 50 -30 67
-51 28z"/>
<path d="M9404 4788 c3 -13 6 -36 6 -52 0 -28 0 -29 20 -11 25 23 26 47 2 68
-26 23 -35 21 -28 -5z"/>
<path d="M4945 4770 c-8 -37 9 -65 26 -40 12 19 7 62 -8 67 -6 2 -14 -10 -18
-27z"/>
<path d="M4920 4615 c0 -28 24 -34 34 -9 10 26 7 34 -14 34 -15 0 -20 -7 -20
-25z"/>
<path d="M9441 4621 c-9 -6 -11 -20 -7 -47 12 -71 26 -74 26 -6 0 34 -1 62 -2
62 -2 0 -9 -4 -17 -9z"/>
<path d="M3040 4511 c0 -5 7 -15 17 -22 15 -13 15 -12 4 9 -12 23 -21 28 -21
13z"/>
<path d="M4896 4468 c-9 -35 -8 -38 14 -38 11 0 20 3 20 8 0 4 3 17 6 30 5 17
2 22 -14 22 -12 0 -22 -9 -26 -22z"/>
<path d="M3083 4439 c-1 -10 2 -19 8 -19 11 0 12 27 1 34 -4 2 -9 -4 -9 -15z"/>
<path d="M6871 4259 c1 -101 5 -256 9 -344 6 -111 7 -55 4 180 -3 186 -7 341
-9 344 -3 2 -4 -79 -4 -180z"/>
<path d="M3116 4385 c4 -17 18 -40 31 -53 14 -13 21 -27 17 -35 -4 -6 -4 -9 1
-5 4 4 15 2 23 -4 12 -11 -58 106 -74 121 -3 3 -2 -8 2 -24z"/>
<path d="M9460 4366 c0 -26 4 -36 16 -36 11 0 14 8 12 32 -4 46 -28 49 -28 4z"/>
<path d="M6916 3500 c1 -468 4 -853 8 -857 23 -23 23 -13 13 1002 -4 352 -10
655 -14 673 -4 18 -7 -350 -7 -818z"/>
<path d="M7512 4320 c0 -14 2 -19 5 -12 2 6 2 18 0 25 -3 6 -5 1 -5 -13z"/>
<path d="M4880 4295 c0 -19 5 -35 10 -35 6 0 10 9 10 19 0 11 3 26 6 35 4 11
1 16 -10 16 -12 0 -16 -10 -16 -35z"/>
<path d="M7511 4138 c2 -166 7 -157 11 20 2 67 0 122 -4 122 -5 0 -7 -64 -7
-142z"/>
<path d="M3200 4254 c0 -8 5 -12 10 -9 6 4 8 11 5 16 -9 14 -15 11 -15 -7z"/>
<path d="M9464 4226 c-7 -19 13 -56 31 -56 15 0 20 26 9 54 -8 20 -33 21 -40
2z"/>
<path d="M4867 4165 c-4 -25 4 -40 17 -28 9 9 7 41 -3 47 -5 3 -11 -6 -14 -19z"/>
<path d="M7092 4125 c0 -16 2 -22 5 -12 2 9 2 23 0 30 -3 6 -5 -1 -5 -18z"/>
<path d="M3290 4121 c0 -6 4 -13 10 -16 6 -3 7 1 4 9 -7 18 -14 21 -14 7z"/>
<path d="M9489 4068 c-4 -45 13 -80 31 -62 12 12 -2 66 -18 72 -7 2 -13 -2
-13 -10z"/>
<path d="M4847 4043 c-4 -3 -7 -17 -7 -30 0 -35 34 -26 38 10 3 26 -14 37 -31
20z"/>
<path d="M7101 4024 c0 -11 3 -14 6 -6 3 7 2 16 -1 19 -3 4 -6 -2 -5 -13z"/>
<path d="M7391 3994 c0 -11 3 -14 6 -6 3 7 2 16 -1 19 -3 4 -6 -2 -5 -13z"/>
<path d="M7473 3955 c0 -22 2 -30 4 -17 2 12 2 30 0 40 -3 9 -5 -1 -4 -23z"/>
<path d="M7507 3321 c-4 -371 -5 -676 -3 -678 3 -3 9 -2 15 1 12 8 13 725 2
1121 -5 190 -7 113 -14 -444z"/>
<path d="M7104 3855 c0 -55 1 -76 3 -47 2 29 2 74 0 100 -2 26 -3 2 -3 -53z"/>
<path d="M3420 3912 c0 -4 14 -23 30 -42 l31 -35 -27 43 c-26 42 -34 49 -34
34z"/>
<path d="M7253 3875 c0 -27 2 -38 4 -22 2 15 2 37 0 50 -2 12 -4 0 -4 -28z"/>
<path d="M4825 3868 c-11 -52 -10 -62 8 -66 14 -3 17 4 17 42 0 48 -16 63 -25
24z"/>
<path d="M6977 3883 c-4 -3 -6 -25 -6 -47 l2 -41 7 45 c8 48 7 54 -3 43z"/>
<path d="M9505 3880 c-9 -14 5 -58 21 -64 11 -4 14 4 14 34 0 28 -4 40 -14 40
-8 0 -17 -4 -21 -10z"/>
<path d="M7473 3825 c0 -33 2 -45 4 -27 2 18 2 45 0 60 -2 15 -4 0 -4 -33z"/>
<path d="M7393 3790 c0 -30 2 -43 4 -27 2 15 2 39 0 55 -2 15 -4 2 -4 -28z"/>
<path d="M7444 3745 c0 -49 1 -71 3 -48 2 23 2 64 0 90 -2 26 -3 8 -3 -42z"/>
<path d="M6974 3675 c0 -66 1 -92 3 -57 2 34 2 88 0 120 -2 31 -3 3 -3 -63z"/>
<path d="M3537 3738 c10 -18 24 -39 31 -46 6 -7 12 -20 12 -28 0 -8 5 -14 10
-14 6 0 15 -11 20 -25 5 -14 15 -25 22 -25 8 0 9 3 3 8 -5 4 -11 13 -13 21 -3
15 -91 141 -98 141 -3 0 3 -15 13 -32z"/>
<path d="M7101 3450 c-2 -168 -7 -318 -11 -335 -9 -37 -15 95 -10 260 1 61 0
108 -3 105 -11 -10 -28 -574 -21 -698 l7 -130 38 1 39 1 -2 395 c-2 397 -2
397 -19 -14 -2 -49 -6 92 -9 315 l-5 405 -4 -305z m-4 -617 c-2 -21 -4 -4 -4
37 0 41 2 58 4 38 2 -21 2 -55 0 -75z m0 -65 c-3 -8 -6 -5 -6 6 -1 11 2 17 5
13 3 -3 4 -12 1 -19z"/>
<path d="M9536 3722 c-4 -7 -4 -27 0 -47 8 -43 34 -48 34 -7 0 34 -23 71 -34
54z"/>
<path d="M6824 3415 c0 -165 2 -234 3 -153 2 81 2 216 0 300 -1 84 -3 18 -3
-147z"/>
<path d="M7392 3685 c0 -16 2 -22 5 -12 2 9 2 23 0 30 -3 6 -5 -1 -5 -18z"/>
<path d="M4800 3676 c0 -13 -3 -32 -6 -41 -5 -13 -2 -16 11 -14 18 4 39 54 29
71 -11 18 -34 7 -34 -16z"/>
<path d="M7390 3608 c0 -129 -9 -430 -14 -478 -4 -37 -3 -47 3 -30 6 18 9 20
10 7 1 -10 -5 -28 -13 -40 -12 -18 -14 -58 -9 -220 5 -174 8 -198 22 -195 14
3 16 52 13 498 -2 272 -5 496 -7 499 -3 2 -5 -16 -5 -41z"/>
<path d="M7483 3575 c0 -44 2 -61 4 -37 2 23 2 59 0 80 -2 20 -4 1 -4 -43z"/>
<path d="M6872 3620 c0 -14 2 -19 5 -12 2 6 2 18 0 25 -3 6 -5 1 -5 -13z"/>
<path d="M7332 3340 c-7 -168 -12 -392 -12 -497 0 -177 1 -193 18 -193 16 0
17 29 14 482 -1 266 -3 490 -5 498 -1 8 -8 -122 -15 -290z"/>
<path d="M7263 3555 c0 -33 2 -45 4 -27 2 18 2 45 0 60 -2 15 -4 0 -4 -33z"/>
<path d="M7291 3340 c-3 -314 -15 -374 -25 -128 -4 103 -5 197 -1 210 5 18 4
19 -4 7 -6 -8 -13 -80 -16 -160 -3 -79 -10 -202 -16 -273 -5 -72 -9 -178 -9
-237 0 -92 2 -108 17 -113 11 -4 22 -1 29 9 11 14 12 14 18 0 3 -9 11 -13 16
-10 11 7 11 498 0 775 l-6 155 -3 -235z m-34 -202 c-3 -7 -5 -2 -5 12 0 14 2
19 5 13 2 -7 2 -19 0 -25z m20 -250 c-2 -18 -4 -4 -4 32 0 36 2 50 4 33 2 -18
2 -48 0 -65z m0 -180 c-2 -18 -4 -4 -4 32 0 36 2 50 4 33 2 -18 2 -48 0 -65z"/>
<path d="M7428 3444 c-2 -71 -5 -279 -6 -461 l-3 -333 37 0 37 0 -7 413 c-8
541 -22 628 -27 167 l-3 -345 -6 337 c-5 343 -16 453 -22 222z"/>
<path d="M6972 3444 c-13 -785 -13 -794 3 -794 13 0 15 37 14 318 -1 174 -5
376 -8 447 l-8 130 -1 -101z"/>
<path d="M9546 3513 c10 -48 13 -53 29 -53 16 0 19 20 9 58 -4 13 -14 22 -25
22 -16 0 -18 -5 -13 -27z"/>
<path d="M4784 3516 c-9 -24 0 -51 19 -54 14 -3 17 4 17 32 0 26 -4 36 -15 36
-9 0 -18 -6 -21 -14z"/>
<path d="M6868 3219 c-2 -284 -3 -292 -8 -119 -4 141 -6 162 -9 90 -3 -88 -1
-533 2 -536 1 -1 13 -5 26 -9 l24 -7 -7 283 c-5 156 -10 353 -12 438 -2 85 -6
157 -9 159 -3 3 -6 -132 -7 -299z m-1 -461 c-2 -24 -4 -7 -4 37 0 44 2 63 4
43 2 -21 2 -57 0 -80z"/>
<path d="M9912 3455 c0 -16 2 -22 5 -12 2 9 2 23 0 30 -3 6 -5 -1 -5 -18z"/>
<path d="M7191 3305 c-1 -77 -4 -259 -8 -404 -5 -224 -4 -263 8 -259 12 4 14
57 17 299 1 162 -2 341 -7 399 l-8 105 -2 -140z"/>
<path d="M9560 3351 c0 -16 7 -34 15 -41 12 -10 15 -7 21 14 8 33 -1 56 -21
56 -10 0 -15 -10 -15 -29z"/>
<path d="M4766 3348 c-9 -36 -7 -40 17 -36 30 4 39 58 9 58 -12 0 -22 -9 -26
-22z"/>
<path d="M7152 3320 c0 -14 2 -19 5 -12 2 6 2 18 0 25 -3 6 -5 1 -5 -13z"/>
<path d="M7157 3154 c-10 -130 -8 -504 3 -504 7 0 10 93 10 285 0 157 -2 285
-4 285 -2 0 -6 -30 -9 -66z"/>
<path d="M9580 3186 c0 -19 5 -38 10 -41 6 -4 10 10 10 34 0 23 -4 41 -10 41
-5 0 -10 -15 -10 -34z"/>
<path d="M4758 3165 c6 -50 22 -54 22 -6 0 27 -4 41 -13 41 -9 0 -12 -11 -9
-35z"/>
<path d="M9574 3066 c-9 -23 0 -69 14 -74 8 -2 12 10 12 42 0 44 -15 62 -26
32z"/>
<path d="M4788 2910 c2 -16 10 -34 17 -40 10 -9 15 -4 20 19 8 36 1 51 -24 51
-14 0 -17 -6 -13 -30z"/>
<path d="M9547 2914 c-10 -11 -9 -72 2 -79 16 -9 42 26 39 54 -3 25 -26 39
-41 25z"/>
<path d="M9500 2765 c-7 -8 -10 -26 -8 -40 3 -14 -1 -30 -8 -36 -15 -12 -19
-39 -6 -38 11 0 63 109 57 120 -9 13 -21 11 -35 -6z"/>
</g>
</svg>
